<svg width="256" height="256" viewBox="0 0 256 256" fill="none" xmlns="http://www.w3.org/2000/svg">
<path d="M63.7101 0L18 45.7143V210.286H72.8521V256L118.562 210.286H155.13L237.409 128V0H63.7101ZM219.125 118.857L182.556 155.429H145.988L113.991 187.429V155.429H72.8521V18.2857H219.125V118.857Z" fill="white"/>
<path fill-rule="evenodd" clip-rule="evenodd" d="M164.564 130.724C165.967 131.271 167.568 131.236 168.984 130.554L187.329 121.727C189.257 120.799 190.483 118.848 190.483 116.708V56.8532C190.483 54.7129 189.257 52.762 187.329 51.8344L168.984 43.0068C167.125 42.1123 164.949 42.3314 163.318 43.5175C163.085 43.687 162.863 43.8762 162.654 44.0846L127.535 76.1248L112.238 64.5128C110.814 63.4319 108.822 63.5205 107.499 64.7236L102.593 69.1866C100.975 70.6582 100.973 73.2033 102.589 74.6773L115.855 86.7804L102.589 98.8835C100.973 100.357 100.975 102.903 102.593 104.374L107.499 108.837C108.822 110.04 110.814 110.129 112.238 109.048L127.535 97.436L162.654 129.476C163.21 130.032 163.862 130.451 164.564 130.724ZM168.22 66.5527L141.573 86.7804L168.22 107.008V66.5527Z" fill="white"/>
</svg>
