<svg width="256" height="256" viewBox="0 0 256 256" fill="none" xmlns="http://www.w3.org/2000/svg">
<path d="M219.159 118.858L182.591 155.429H146.023L114.026 187.429V155.429H72.8867V18.2861H219.159V118.858Z" fill="white"/>
<path d="M63.7101 0L18 45.7143V210.286H72.8521V256L118.562 210.286H155.13L237.409 128V0H63.7101ZM219.125 118.857L182.556 155.429H145.988L113.991 187.429V155.429H72.8521V18.2857H219.125V118.857Z" fill="#9146FF"/>
<mask id="mask0_32_32" style="mask-type:alpha" maskUnits="userSpaceOnUse" x="101" y="42" width="90" height="90">
<path fill-rule="evenodd" clip-rule="evenodd" d="M164.564 130.724C165.967 131.271 167.568 131.236 168.984 130.554L187.329 121.727C189.257 120.799 190.483 118.848 190.483 116.708V56.8532C190.483 54.7129 189.257 52.762 187.329 51.8344L168.984 43.0068C167.125 42.1123 164.949 42.3314 163.318 43.5175C163.085 43.687 162.863 43.8762 162.654 44.0846L127.535 76.1248L112.238 64.5128C110.814 63.4319 108.822 63.5205 107.499 64.7236L102.593 69.1866C100.975 70.6582 100.973 73.2033 102.589 74.6773L115.855 86.7804L102.589 98.8835C100.973 100.357 100.975 102.903 102.593 104.374L107.499 108.837C108.822 110.04 110.814 110.129 112.238 109.048L127.535 97.436L162.654 129.476C163.21 130.032 163.862 130.451 164.564 130.724ZM168.22 66.5527L141.573 86.7804L168.22 107.008V66.5527Z" fill="white"/>
</mask>
<g mask="url(#mask0_32_32)">
<path d="M187.33 51.8474L168.97 43.0076C166.845 41.9844 164.305 42.4161 162.638 44.0838L102.535 98.8828C100.919 100.357 100.921 102.902 102.539 104.373L107.449 108.836C108.772 110.04 110.765 110.128 112.19 109.047L184.567 54.1406C186.995 52.2986 190.483 54.0304 190.483 57.0782V56.8651C190.483 54.7257 189.257 52.7755 187.33 51.8474Z" fill="#7414FF"/>
<g filter="url(#filter0_d_32_32)">
<path d="M187.33 121.711L168.97 130.551C166.845 131.575 164.305 131.143 162.638 129.475L102.535 74.6761C100.919 73.2022 100.921 70.657 102.539 69.1854L107.449 64.7224C108.772 63.5193 110.765 63.4307 112.19 64.5116L184.567 119.418C186.995 121.26 190.483 119.528 190.483 116.481V116.694C190.483 118.833 189.257 120.783 187.33 121.711Z" fill="#8029FF"/>
</g>
<g filter="url(#filter1_d_32_32)">
<path d="M168.971 130.554C166.845 131.577 164.306 131.144 162.638 129.476C164.693 131.531 168.207 130.076 168.207 127.169V46.3914C168.207 43.4851 164.693 42.0295 162.638 44.0846C164.306 42.4167 166.845 41.9845 168.971 43.0068L187.327 51.8344C189.256 52.762 190.483 54.7129 190.483 56.8532V116.708C190.483 118.848 189.256 120.799 187.327 121.727L168.971 130.554Z" fill="#9146FF"/>
</g>
<g style="mix-blend-mode:overlay" opacity="0.25">
<path fill-rule="evenodd" clip-rule="evenodd" d="M164.51 130.724C165.914 131.271 167.514 131.236 168.93 130.554L187.275 121.727C189.203 120.799 190.429 118.848 190.429 116.708V56.8532C190.429 54.7129 189.203 52.7619 187.275 51.8343L168.93 43.0068C167.071 42.1123 164.896 42.3314 163.264 43.5175C163.031 43.687 162.809 43.8762 162.601 44.0846L127.481 76.1248L112.184 64.5129C110.76 63.4319 108.768 63.5205 107.446 64.7235L102.539 69.1866C100.921 70.6582 100.92 73.2033 102.535 74.6773L115.802 86.7804L102.535 98.8836C100.92 100.358 100.921 102.903 102.539 104.374L107.446 108.837C108.768 110.04 110.76 110.129 112.184 109.048L127.481 97.436L162.601 129.476C163.156 130.032 163.809 130.451 164.51 130.724ZM168.166 66.5527L141.519 86.7804L168.166 107.008V66.5527Z" fill="url(#paint0_linear_32_32)"/>
</g>
</g>
<defs>
<filter id="filter0_d_32_32" x="92.9909" y="55.4235" width="105.825" height="84.0104" filterUnits="userSpaceOnUse" color-interpolation-filters="sRGB">
<feFlood flood-opacity="0" result="BackgroundImageFix"/>
<feColorMatrix in="SourceAlpha" type="matrix" values="0 0 0 0 0 0 0 0 0 0 0 0 0 0 0 0 0 0 127 0" result="hardAlpha"/>
<feOffset/>
<feGaussianBlur stdDeviation="4.16667"/>
<feColorMatrix type="matrix" values="0 0 0 0 0 0 0 0 0 0 0 0 0 0 0 0 0 0 0.25 0"/>
<feBlend mode="overlay" in2="BackgroundImageFix" result="effect1_dropShadow_32_32"/>
<feBlend mode="normal" in="SourceGraphic" in2="effect1_dropShadow_32_32" result="shape"/>
</filter>
<filter id="filter1_d_32_32" x="154.304" y="34.1247" width="44.5119" height="105.311" filterUnits="userSpaceOnUse" color-interpolation-filters="sRGB">
<feFlood flood-opacity="0" result="BackgroundImageFix"/>
<feColorMatrix in="SourceAlpha" type="matrix" values="0 0 0 0 0 0 0 0 0 0 0 0 0 0 0 0 0 0 127 0" result="hardAlpha"/>
<feOffset/>
<feGaussianBlur stdDeviation="4.16667"/>
<feColorMatrix type="matrix" values="0 0 0 0 0 0 0 0 0 0 0 0 0 0 0 0 0 0 0.25 0"/>
<feBlend mode="overlay" in2="BackgroundImageFix" result="effect1_dropShadow_32_32"/>
<feBlend mode="normal" in="SourceGraphic" in2="effect1_dropShadow_32_32" result="shape"/>
</filter>
<linearGradient id="paint0_linear_32_32" x1="145.877" y1="42.458" x2="145.877" y2="131.103" gradientUnits="userSpaceOnUse">
<stop stop-color="white"/>
<stop offset="1" stop-color="white" stop-opacity="0"/>
</linearGradient>
</defs>
</svg>
